<svg width="16" height="16" viewBox="0 0 16 16" fill="none" xmlns="http://www.w3.org/2000/svg">
    <path fill-rule="evenodd" clip-rule="evenodd" d="M4 4.75C4 4.33579 4.33579 4 4.75 4H11.25C11.6642 4 12 4.33579 12 4.75C12 5.16421 11.6642 5.5 11.25 5.5H4.75C4.33579 5.5 4 5.16421 4 4.75Z"/>
    <path fill-rule="evenodd" clip-rule="evenodd" d="M4 8.25C4 7.83579 4.33579 7.5 4.75 7.5H11.25C11.6642 7.5 12 7.83579 12 8.25C12 8.66421 11.6642 9 11.25 9H4.75C4.33579 9 4 8.66421 4 8.25Z"/>
    <path fill-rule="evenodd" clip-rule="evenodd" d="M4 11.75C4 11.3358 4.33579 11 4.75 11H11.25C11.6642 11 12 11.3358 12 11.75C12 12.1642 11.6642 12.5 11.25 12.5H4.75C4.33579 12.5 4 12.1642 4 11.75Z"/>
</svg>
