<svg width="16" height="16" viewBox="0 0 16 16" fill="none" xmlns="http://www.w3.org/2000/svg">
<path fill-rule="evenodd" clip-rule="evenodd" d="M2.65932 2.49265C2.8876 2.28492 3.18871 2.17581 3.49706 2.18907C3.5078 2.18953 3.51855 2.18976 3.5293 2.18976H9.5293C9.54004 2.18976 9.55079 2.18953 9.56153 2.18907C9.86989 2.17581 10.171 2.28492 10.3993 2.49265C10.6234 2.6966 10.7595 2.97939 10.7793 3.28132V3.80982H6.37973C4.91065 3.80982 3.71973 5.00074 3.71973 6.46982V10.6898H3.5293C3.51725 10.6898 3.5052 10.6901 3.49316 10.6906C3.34079 10.698 3.18846 10.6752 3.04491 10.6236C2.90135 10.572 2.76938 10.4926 2.65655 10.3899C2.54372 10.2873 2.45226 10.1633 2.38739 10.0253C2.32466 9.89175 2.28799 9.74755 2.2793 9.60038V3.28133C2.29912 2.97939 2.4352 2.6966 2.65932 2.49265ZM3.71973 12.1898H3.54588C3.203 12.2038 2.86059 12.1513 2.53753 12.0352C2.20833 11.9169 1.90571 11.7348 1.64699 11.4993C1.38827 11.2639 1.17852 10.9797 1.02977 10.6631C0.881012 10.3465 0.796167 10.0037 0.780089 9.65423C0.779561 9.64275 0.779297 9.63126 0.779297 9.61976V3.25976C0.779297 3.24697 0.779624 3.23417 0.780279 3.2214C0.816313 2.51798 1.12883 1.85729 1.64976 1.38324C2.16639 0.913111 2.8465 0.664317 3.54409 0.689765H9.5145C10.2121 0.664317 10.8922 0.913111 11.4088 1.38324C11.9298 1.85729 12.2423 2.51798 12.2783 3.2214C12.279 3.23417 12.2793 3.24697 12.2793 3.25976V3.80982H12.5597C14.0288 3.80982 15.2197 5.00074 15.2197 6.46982V12.6498C15.2197 14.1189 14.0288 15.3098 12.5597 15.3098H6.37973C4.91065 15.3098 3.71973 14.1189 3.71973 12.6498V12.1898ZM13.7197 12.6498C13.7197 13.2905 13.2004 13.8098 12.5597 13.8098H6.37973C5.73908 13.8098 5.21973 13.2905 5.21973 12.6498V6.46982C5.21973 5.82916 5.73908 5.30982 6.37973 5.30982H12.5597C13.2004 5.30982 13.7197 5.82917 13.7197 6.46982V12.6498ZM9.46973 6.80981C9.88394 6.80981 10.2197 7.1456 10.2197 7.55981V8.80982H11.4697C11.8839 8.80982 12.2197 9.1456 12.2197 9.55982C12.2197 9.97403 11.8839 10.3098 11.4697 10.3098H10.2197V11.5598C10.2197 11.974 9.88394 12.3098 9.46973 12.3098C9.05551 12.3098 8.71973 11.974 8.71973 11.5598V10.3098H7.46973C7.05551 10.3098 6.71973 9.97403 6.71973 9.55982C6.71973 9.1456 7.05551 8.80982 7.46973 8.80982H8.71973V7.55981C8.71973 7.1456 9.05551 6.80981 9.46973 6.80981Z" fill="#2A2A2F"/>
</svg>
