<svg width="19" height="18" viewBox="0 0 19 18" fill="none" xmlns="http://www.w3.org/2000/svg">
    <path fill-rule="evenodd" clip-rule="evenodd" d="M16.0022 1.5L2.0022 1.5C1.72606 1.5 1.5022 1.72386 1.5022 2L1.5022 2.90909C1.5022 3.18524 1.72606 3.40909 2.0022 3.40909L16.0022 3.40909C16.2784 3.40909 16.5022 3.18523 16.5022 2.90909V2C16.5022 1.72386 16.2784 1.5 16.0022 1.5ZM18.0022 2C18.0022 0.895431 17.1068 0 16.0022 0L2.0022 3.03066e-06C0.897628 3.23988e-06 0.00219709 0.895434 0.00219727 2L0.00219741 2.90909C0.00219759 4.01366 0.897629 4.90909 2.0022 4.90909L16.0022 4.90909C17.1068 4.90909 18.0022 4.01366 18.0022 2.90909V2ZM2.91129 14.5909L2.0022 14.5909C1.72606 14.5909 1.5022 14.8148 1.5022 15.0909L1.5022 16C1.5022 16.2762 1.72606 16.5 2.0022 16.5H2.91129C3.18743 16.5 3.41129 16.2761 3.41129 16L3.41129 15.0909C3.41129 14.8148 3.18743 14.5909 2.91129 14.5909ZM4.91129 15.0909C4.91129 13.9863 4.01586 13.0909 2.91129 13.0909L2.0022 13.0909C0.897629 13.0909 0.00219804 13.9863 0.00219822 15.0909L0.00219837 16C0.00219855 17.1046 0.897629 18 2.0022 18H2.91129C4.01586 18 4.91129 17.1046 4.91129 16V15.0909ZM15.0931 8.04546L16.0022 8.04546C16.2784 8.04546 16.5022 8.26932 16.5022 8.54546V9.45455C16.5022 9.73069 16.2784 9.95455 16.0022 9.95455L15.0931 9.95455C14.817 9.95455 14.5931 9.73069 14.5931 9.45455V8.54546C14.5931 8.26932 14.817 8.04546 15.0931 8.04546ZM16.0022 6.54546C17.1068 6.54546 18.0022 7.44089 18.0022 8.54546V9.45455C18.0022 10.5591 17.1068 11.4546 16.0022 11.4546L15.0931 11.4546C13.9885 11.4546 13.0931 10.5591 13.0931 9.45455V8.54546C13.0931 7.44089 13.9885 6.54546 15.0931 6.54546H16.0022ZM14.2687 16.5H16.0022C16.2784 16.5 16.5022 16.2762 16.5022 16V15.091C16.5022 14.8148 16.2783 14.591 16.0022 14.591L14.9082 14.591C13.3222 14.591 11.8134 13.9063 10.769 12.7127L8.62746 10.2652C7.39319 8.8546 5.61007 8.04547 3.7357 8.04546L2.00223 8.04546C1.72608 8.04546 1.50223 8.26932 1.50223 8.54546L1.50223 9.45455C1.50222 9.73069 1.72608 9.95455 2.00223 9.95455L3.09623 9.95455C4.68224 9.95455 6.19104 10.6392 7.23542 11.8328L9.37697 14.2803C10.6112 15.6909 12.3944 16.5 14.2687 16.5ZM18.0022 15.091C18.0022 13.9864 17.1068 13.091 16.0022 13.091L14.9082 13.091C13.7547 13.091 12.6574 12.593 11.8979 11.725L9.75633 9.27745C8.23723 7.54132 6.04261 6.54547 3.7357 6.54546L2.00223 6.54546C0.897659 6.54546 0.0022257 7.44089 0.00222588 8.54546L0.00222602 9.45455C0.0022243 10.5591 0.897656 11.4546 2.00223 11.4546L3.09623 11.4546C4.24969 11.4546 5.347 11.9525 6.10655 12.8205L8.2481 15.2681C9.7672 17.0042 11.9618 18 14.2687 18H16.0022C17.1068 18 18.0022 17.1046 18.0022 16V15.091Z" />
</svg>
