<svg width="18" height="17" viewBox="0 0 18 17" fill="none" xmlns="http://www.w3.org/2000/svg">
    <path fill-rule="evenodd" clip-rule="evenodd" d="M7.19561 1.80673C7.08628 1.76624 6.96925 1.74696 6.85142 1.75039C6.84415 1.7506 6.83688 1.75071 6.82961 1.75071H2.6656L2.64809 1.7505C2.41021 1.74495 2.18318 1.8317 2.016 1.98625C1.85188 2.13797 1.75881 2.34203 1.75 2.55351V10.3978L2.44416 8.66981C2.62464 8.23694 2.93832 7.87465 3.33427 7.62456C3.72871 7.37542 4.18967 7.24682 4.65651 7.2503H15.25V5.48372C15.2412 5.27223 15.1481 5.06818 14.984 4.91646C14.8168 4.76191 14.5898 4.67515 14.3519 4.68071L14.3344 4.68091H9.3449C9.14554 4.68427 8.94702 4.64997 8.76013 4.57951C8.57007 4.50785 8.39515 4.39994 8.2458 4.26104C8.09641 4.1221 7.97549 3.95481 7.89089 3.76816C7.80626 3.58147 7.7599 3.37961 7.755 3.17425L7.75479 3.15637V2.55345C7.75048 2.44944 7.7258 2.34664 7.68152 2.25047C7.6359 2.15138 7.57012 2.06076 7.48697 1.98434C7.40379 1.90788 7.30493 1.84722 7.19561 1.80673ZM16.3671 7.4397C16.386 7.44766 16.4047 7.45588 16.4234 7.46434C16.7503 7.61244 17.0399 7.83304 17.2656 8.11207C17.4915 8.39138 17.6465 8.7209 17.7132 9.0745C17.7799 9.42829 17.7556 9.79173 17.643 10.1336L17.638 10.1483L15.8441 15.2397C15.6766 15.6933 15.3649 16.0773 14.9626 16.3444C14.5612 16.6109 14.0863 16.7504 13.6041 16.7496C13.6038 16.7496 13.6034 16.7496 13.6031 16.7496L13.6046 15.9996L13.6041 16.7496H2.60658C2.60945 16.7496 2.61231 16.7495 2.61518 16.7495L2.59939 15.9996V16.7496H2.60658C2.24286 16.756 1.88103 16.6805 1.55121 16.5273C1.21865 16.3729 0.925937 16.1428 0.701689 15.8525C0.47719 15.5619 0.328707 15.2203 0.273737 14.8566C0.230364 14.5696 0.246732 14.2786 0.320329 14H0.25V2.54046C0.25 2.53299 0.250112 2.52552 0.250335 2.51806C0.268969 1.89459 0.540073 1.30791 0.997766 0.884799C1.45247 0.464451 2.05477 0.238699 2.67355 0.250706H6.81971C7.12533 0.243321 7.42989 0.293926 7.71659 0.400112C8.00704 0.507688 8.27409 0.670444 8.50206 0.879978C8.73006 1.08955 8.91455 1.34189 9.04405 1.62315C9.17356 1.90445 9.24525 2.20864 9.25446 2.51818C9.25468 2.52561 9.25479 2.53303 9.25479 2.54046V3.14113C9.25511 3.14347 9.25581 3.14607 9.25709 3.1489C9.25889 3.15288 9.26206 3.15774 9.26735 3.16266C9.27268 3.16762 9.28 3.17244 9.28932 3.17596C9.29867 3.17948 9.30922 3.18137 9.32019 3.18112L9.33759 3.18091H14.3265C14.9452 3.16891 15.5475 3.39466 16.0022 3.81501C16.4599 4.23812 16.731 4.82479 16.7497 5.44827C16.7499 5.45573 16.75 5.4632 16.75 5.47067V7.4397H16.3671ZM15.8044 8.83064C15.6834 8.77583 15.5477 8.74756 15.4089 8.75016L15.3948 8.75043L4.64676 8.7503C4.46036 8.74864 4.28182 8.80022 4.1353 8.89277C3.99059 8.98417 3.88737 9.1086 3.83025 9.24341L1.79027 14.3215C1.75218 14.4227 1.74125 14.5289 1.7569 14.6324C1.77279 14.7376 1.81644 14.8419 1.88874 14.9355C1.96129 15.0294 2.06113 15.1103 2.183 15.1669C2.30501 15.2235 2.44273 15.2528 2.5836 15.2498L2.59939 15.2496H13.6046L13.6061 15.2496C13.7995 15.25 13.9838 15.1937 14.1329 15.0947C14.28 14.9971 14.3821 14.8655 14.4352 14.7245L16.2202 9.65851C16.2521 9.55833 16.2583 9.45405 16.2392 9.35258C16.2196 9.24888 16.1732 9.14672 16.0994 9.0554C16.0253 8.9638 15.9252 8.88539 15.8044 8.83064Z" />
</svg>