<svg width="19" height="18" viewBox="0 0 19 18" fill="none" xmlns="http://www.w3.org/2000/svg">
    <path fill-rule="evenodd" clip-rule="evenodd" d="M2.0022 16.5H2.91129C3.18743 16.5 3.41129 16.2761 3.41129 16L3.41129 2C3.41129 1.72386 3.18743 1.5 2.91129 1.5H2.0022C1.72606 1.5 1.5022 1.72386 1.5022 2L1.5022 16C1.5022 16.2761 1.72606 16.5 2.0022 16.5ZM2.91129 18C4.01586 18 4.91129 17.1046 4.91129 16L4.91129 2C4.91129 0.895432 4.01586 0 2.91129 0H2.0022C0.89763 0 0.0021995 0.895433 0.00219942 2L0.00219727 16C0.00219727 17.1046 0.89763 18 2.0022 18H2.91129ZM8.54765 16.5H9.45674C9.73288 16.5 9.95674 16.2761 9.95674 16L9.95674 8.54546C9.95674 8.26931 9.73289 8.04546 9.45674 8.04546H8.54765C8.27151 8.04546 8.04765 8.26931 8.04765 8.54546V16C8.04765 16.2761 8.27151 16.5 8.54765 16.5ZM9.45674 18C10.5613 18 11.4567 17.1046 11.4567 16L11.4567 8.54546C11.4567 7.44089 10.5613 6.54546 9.45674 6.54546L8.54765 6.54546C7.44308 6.54546 6.54765 7.44089 6.54765 8.54546L6.54765 16C6.54765 17.1046 7.44308 18 8.54765 18H9.45674ZM16.0022 16.5H15.0931C14.817 16.5 14.5931 16.2761 14.5931 16V13.4545C14.5931 13.1784 14.817 12.9545 15.0931 12.9545H16.0022C16.2783 12.9545 16.5022 13.1784 16.5022 13.4545V16C16.5022 16.2761 16.2783 16.5 16.0022 16.5ZM18.0022 16C18.0022 17.1046 17.1068 18 16.0022 18H15.0931C13.9885 18 13.0931 17.1046 13.0931 16V13.4545C13.0931 12.35 13.9885 11.4545 15.0931 11.4545H16.0022C17.1068 11.4545 18.0022 12.35 18.0022 13.4545V16Z" />
</svg>
