<svg viewBox="0 0 15 12" fill="none" xmlns="http://www.w3.org/2000/svg"><path d="M1 10.92V1m7.066 9.92V1M2.178 5.96h4.71" stroke="#2A2A2F" stroke-width="1.5" stroke-miterlimit="10" stroke-linecap="round" stroke-linejoin="round"/><path d="M10.657 10.752h4.108V9.78h-2.516l1.724-2.371c.425-.576.641-1.131.641-1.717 0-1.18-.735-1.964-1.912-1.964-1.074 0-1.856.784-1.932 1.845l.933.189c.085-.655.443-1.062.98-1.062.593 0 .923.387.923 1.022 0 .447-.122.784-.584 1.389l-2.365 3.224v.417Z" fill="#2A2A2F"/><path fill-rule="evenodd" clip-rule="evenodd" d="M10.42 11v-.75l2.418-3.294c.225-.296.356-.511.432-.697.074-.18.1-.342.1-.537 0-.274-.071-.462-.176-.58-.102-.115-.265-.194-.512-.194a.634.634 0 0 0-.49.21c-.124.136-.219.348-.256.637l-.034.26-1.383-.28.016-.22c.084-1.193.97-2.075 2.166-2.075.639 0 1.18.214 1.563.611s.585.956.585 1.601c0 .656-.245 1.264-.69 1.868l-1.433 1.972H15V11h-4.58Zm1.829-1.22 1.724-2.371c.424-.576.64-1.131.64-1.717 0-1.18-.734-1.964-1.912-1.964-1.074 0-1.856.784-1.931 1.845l.932.189c.01-.072.022-.14.038-.206.127-.533.464-.856.942-.856.593 0 .923.387.923 1.022 0 .447-.122.784-.584 1.39l-2.365 3.223v.417h4.108V9.78H12.25Z"/></svg>