<svg viewBox="0 0 15 12" fill="none" xmlns="http://www.w3.org/2000/svg"><path d="M1 10.68V1m6.867 9.68V1M2.145 5.84h4.578" stroke="#2A2A2F" stroke-width="1.5" stroke-miterlimit="10" stroke-linecap="round" stroke-linejoin="round"/><path d="M12.647 10.758c1.245 0 2.124-.871 2.124-2.236 0-1.25-.686-2.053-1.657-2.053-.091 0-.174.01-.247.02l1.575-2.236v-.349h-3.58v.949h2.17l-1.337 1.926.403.59c.183-.106.357-.154.558-.154.678 0 1.136.455 1.136 1.316 0 .785-.44 1.278-1.145 1.278-.659 0-1.016-.455-1.144-1.132l-.943.135c.11 1.162.943 1.946 2.087 1.946Z" fill="#2A2A2F"/><path fill-rule="evenodd" clip-rule="evenodd" d="m14.442 4.253-1.575 2.236a1.846 1.846 0 0 1 .298-.019c.944.028 1.606.825 1.606 2.052 0 1.365-.879 2.236-2.124 2.236-1.064 0-1.859-.678-2.054-1.706a3.064 3.064 0 0 1-.034-.24l.943-.135c.129.677.486 1.132 1.145 1.132.705 0 1.144-.493 1.144-1.277 0-.862-.457-1.317-1.135-1.317-.201 0-.375.048-.558.155l-.403-.59 1.336-1.927h-2.17v-.949h3.58v.349Zm-1.862.842-1.168 1.683.618.907.178-.103a.843.843 0 0 1 .448-.125c.29 0 .508.096.656.26.149.165.25.428.25.815 0 .344-.095.6-.245.766-.148.166-.37.27-.67.27-.275 0-.469-.093-.61-.242-.145-.154-.252-.387-.31-.697l-.042-.223-1.375.198.022.232C10.454 10.126 11.39 11 12.647 11c.674 0 1.265-.236 1.69-.675.424-.44.663-1.064.663-1.803 0-.67-.184-1.244-.52-1.653a1.716 1.716 0 0 0-1.152-.63l1.343-1.906v-.67h-4.038v1.432h1.947Z"/></svg>