<svg width="19" height="18" viewBox="0 0 19 18" fill="none" xmlns="http://www.w3.org/2000/svg">
    <path fill-rule="evenodd" clip-rule="evenodd" d="M16.0022 1.5H2.0022C1.72605 1.5 1.5022 1.72386 1.5022 2V16C1.5022 16.2761 1.72605 16.5 2.0022 16.5H16.0022C16.2783 16.5 16.5022 16.2761 16.5022 16V2C16.5022 1.72386 16.2783 1.5 16.0022 1.5ZM2.0022 0C0.897628 0 0.00219727 0.89543 0.00219727 2V16C0.00219727 17.1046 0.897628 18 2.0022 18H16.0022C17.1068 18 18.0022 17.1046 18.0022 16V2C18.0022 0.895431 17.1068 0 16.0022 0H2.0022ZM9.0022 11.5227C9.41641 11.5227 9.7522 11.8585 9.7522 12.2727V14.7273C9.7522 15.1415 9.41641 15.4773 9.0022 15.4773C8.58798 15.4773 8.2522 15.1415 8.2522 14.7273V12.2727C8.2522 11.8585 8.58798 11.5227 9.0022 11.5227ZM5.66129 13.9091C5.66129 13.4949 5.3255 13.1591 4.91129 13.1591C4.49707 13.1591 4.16129 13.4949 4.16129 13.9091V14.7273C4.16129 15.1415 4.49708 15.4773 4.91129 15.4773C5.3255 15.4773 5.66129 15.1415 5.66129 14.7273V13.9091ZM13.0931 13.1591C13.5073 13.1591 13.8431 13.4949 13.8431 13.9091V14.7273C13.8431 15.1415 13.5073 15.4773 13.0931 15.4773C12.6789 15.4773 12.3431 15.1415 12.3431 14.7273V13.9091C12.3431 13.4949 12.6789 13.1591 13.0931 13.1591ZM3.15369 8.87876C2.86079 9.17165 2.86079 9.64653 3.15369 9.93942C3.44658 10.2323 3.92145 10.2323 4.21435 9.93942L6.54765 7.60611L8.47187 9.53033C8.76476 9.82322 9.23963 9.82322 9.53253 9.53033L14.8507 4.21215C15.1436 3.91926 15.1436 3.44438 14.8507 3.15149C14.5578 2.8586 14.0829 2.8586 13.79 3.15149L9.0022 7.93934L7.07798 6.01512C6.78509 5.72223 6.31022 5.72223 6.01732 6.01512L3.15369 8.87876Z"/>
</svg>