<svg width="14" height="14" viewBox="0 0 14 14" fill="none" xmlns="http://www.w3.org/2000/svg">
<path fill-rule="evenodd" clip-rule="evenodd" d="M6.40763 7.39086C6.06571 7.15929 5.60375 7.25316 5.3758 7.60051C5.14786 7.94786 5.24025 8.41717 5.58217 8.64874C7.27027 9.79204 9.19935 9.91746 10.5276 8.56705L10.5277 8.56697L12.9722 6.08353C14.3421 4.69184 14.3421 2.43546 12.9722 1.04377C11.6023 -0.347922 9.38126 -0.347924 8.01135 1.04377L6.97585 2.09574C6.68527 2.39093 6.68527 2.86954 6.97585 3.16473C7.26642 3.45993 7.73754 3.45993 8.02811 3.16473L9.06362 2.11276C9.85238 1.31146 11.1312 1.31146 11.92 2.11276C12.7087 2.91406 12.7087 4.21323 11.92 5.01453L9.47532 7.49806L9.47506 7.49832C8.82032 8.16413 7.73448 8.28949 6.40763 7.39086ZM7.59203 6.60627C7.93395 6.83784 8.39591 6.74397 8.62386 6.39662C8.8518 6.04926 8.75941 5.57995 8.41749 5.34839C6.72939 4.20509 4.80031 4.07967 3.47208 5.43008L3.472 5.43016L1.02743 7.9136C-0.342477 9.30529 -0.342477 11.5617 1.02743 12.9534C2.39734 14.3451 4.6184 14.3451 5.98831 12.9534L7.02381 11.9014C7.31439 11.6062 7.31439 11.1276 7.02381 10.8324C6.73324 10.5372 6.26212 10.5372 5.97155 10.8324L4.93604 11.8844C4.14728 12.6857 2.86845 12.6857 2.07969 11.8844C1.29093 11.0831 1.29093 9.7839 2.07969 8.9826L4.52434 6.49907L4.5246 6.49881C5.17934 5.833 6.26518 5.70764 7.59203 6.60627Z" fill="#2A2A2F"/>
</svg>
