<svg width="19" height="18" viewBox="0 0 19 18" fill="none" xmlns="http://www.w3.org/2000/svg">
    <path fill-rule="evenodd" clip-rule="evenodd" d="M2.91129 3.40909H2.0022C1.72605 3.40909 1.5022 3.18523 1.5022 2.90909L1.5022 2C1.5022 1.72386 1.72606 1.5 2.0022 1.5H2.91129C3.18743 1.5 3.41129 1.72386 3.41129 2V2.90909C3.41129 3.18523 3.18743 3.40909 2.91129 3.40909ZM4.91129 2.90909C4.91129 4.01366 4.01586 4.90909 2.91129 4.90909L2.0022 4.90909C0.897629 4.90909 0.00219727 4.01366 0.00219727 2.90909V2C0.00219727 0.895431 0.897628 0 2.0022 0H2.91129C4.01586 0 4.91129 0.895431 4.91129 2V2.90909ZM2.91129 9.95455H2.0022C1.72605 9.95455 1.5022 9.73069 1.5022 9.45455L1.5022 8.54545C1.5022 8.26931 1.72606 8.04545 2.0022 8.04545H2.91129C3.18743 8.04545 3.41129 8.26931 3.41129 8.54545V9.45454C3.41129 9.73069 3.18743 9.95455 2.91129 9.95455ZM4.91129 9.45454C4.91129 10.5591 4.01586 11.4545 2.91129 11.4545H2.0022C0.897629 11.4545 0.00219727 10.5591 0.00219727 9.45455V8.54545C0.00219727 7.44089 0.897628 6.54545 2.0022 6.54545L2.91129 6.54545C4.01586 6.54545 4.91129 7.44089 4.91129 8.54545V9.45454ZM9.45674 9.95455H8.54765C8.27151 9.95455 8.04765 9.73069 8.04765 9.45455V8.54545C8.04765 8.26931 8.27151 8.04545 8.54765 8.04545H9.45674C9.73289 8.04545 9.95674 8.26931 9.95674 8.54545V9.45454C9.95674 9.73069 9.73288 9.95455 9.45674 9.95455ZM11.4567 9.45454C11.4567 10.5591 10.5613 11.4545 9.45674 11.4545H8.54765C7.44308 11.4545 6.54765 10.5591 6.54765 9.45455V8.54545C6.54765 7.44089 7.44308 6.54545 8.54765 6.54545L9.45674 6.54545C10.5613 6.54545 11.4567 7.44089 11.4567 8.54545V9.45454ZM2.0022 16.5H2.91129C3.18743 16.5 3.41129 16.2761 3.41129 16V15.0909C3.41129 14.8148 3.18743 14.5909 2.91129 14.5909H2.0022C1.72606 14.5909 1.5022 14.8148 1.5022 15.0909L1.5022 16C1.5022 16.2761 1.72605 16.5 2.0022 16.5ZM2.91129 18C4.01586 18 4.91129 17.1046 4.91129 16V15.0909C4.91129 13.9863 4.01586 13.0909 2.91129 13.0909H2.0022C0.897628 13.0909 0.00219727 13.9863 0.00219727 15.0909V16C0.00219727 17.1046 0.897629 18 2.0022 18H2.91129ZM8.54765 3.40909H9.45674C9.73288 3.40909 9.95674 3.18523 9.95674 2.90909V2C9.95674 1.72386 9.73289 1.5 9.45674 1.5H8.54765C8.27151 1.5 8.04765 1.72386 8.04765 2V2.90909C8.04765 3.18523 8.27151 3.40909 8.54765 3.40909ZM9.45674 4.90909C10.5613 4.90909 11.4567 4.01366 11.4567 2.90909V2C11.4567 0.895431 10.5613 0 9.45674 0H8.54765C7.44308 0 6.54765 0.895431 6.54765 2V2.90909C6.54765 4.01366 7.44308 4.90909 8.54765 4.90909L9.45674 4.90909ZM16.0022 3.40909H15.0931C14.817 3.40909 14.5931 3.18523 14.5931 2.90909V2C14.5931 1.72386 14.817 1.5 15.0931 1.5H16.0022C16.2783 1.5 16.5022 1.72386 16.5022 2V2.90909C16.5022 3.18523 16.2783 3.40909 16.0022 3.40909ZM18.0022 2.90909C18.0022 4.01366 17.1068 4.90909 16.0022 4.90909L15.0931 4.90909C13.9885 4.90909 13.0931 4.01366 13.0931 2.90909V2C13.0931 0.895431 13.9885 0 15.0931 0H16.0022C17.1068 0 18.0022 0.895431 18.0022 2V2.90909Z" />
</svg>
