<svg><defs/><symbol id="add" viewBox="0 0 24 24">
    <path fill-rule="evenodd" clip-rule="evenodd" d="M12.75 9a.75.75 0 0 0-1.5 0v2.25H9a.75.75 0 0 0 0 1.5h2.25V15a.75.75 0 0 0 1.5 0v-2.25H15a.75.75 0 0 0 0-1.5h-2.25V9Z"/>
</symbol><symbol id="align_center" viewBox="0 0 24 24"><path d="M0 0h24v24H0z" fill="none"/><path d="M7 15v2h10v-2H7zm-4 6h18v-2H3v2zm0-8h18v-2H3v2zm4-6v2h10V7H7zM3 3v2h18V3H3z"/></symbol><symbol id="align_left" viewBox="0 0 24 24"><path d="M0 0h24v24H0z" fill="none"/><path d="M15 15H3v2h12v-2zm0-8H3v2h12V7zM3 13h18v-2H3v2zm0 8h18v-2H3v2zM3 3v2h18V3H3z"/></symbol><symbol id="align_right" viewBox="0 0 24 24"><path d="M0 0h24v24H0z" fill="none"/><path d="M3 21h18v-2H3v2zm6-4h12v-2H9v2zm-6-4h18v-2H3v2zm6-4h12V7H9v2zM3 3v2h18V3H3z"/></symbol><symbol id="bold" viewBox="0 0 24 24"><path d="M0 0h24v24H0z" fill="none"/><path d="M15.6 10.79c.97-.67 1.65-1.77 1.65-2.79 0-2.26-1.75-4-4-4H7v14h7.04c2.09 0 3.71-1.7 3.71-3.79 0-1.52-.86-2.82-2.15-3.42zM10 6.5h3c.83 0 1.5.67 1.5 1.5s-.67 1.5-1.5 1.5h-3v-3zm3.5 9H10v-3h3.5c.83 0 1.5.67 1.5 1.5s-.67 1.5-1.5 1.5z"/></symbol><symbol id="caret" viewBox="0 0 12 12">
    <path d="M8 6C6.11438 7.88557 4.5 9.5 4 10L4 2C4.5 2.5 6.78105 4.78102 8 6Z"/>
</symbol><symbol id="chevron_down"><path d="M0 0h24v24H0V0z" fill="none"/><path d="M7.41 8.59L12 13.17l4.59-4.58L18 10l-6 6-6-6 1.41-1.41z"/></symbol><symbol id="chevron_left"><path d="M0 0h24v24H0V0z" fill="none"/><path d="M15.41 16.59L10.83 12l4.58-4.59L14 6l-6 6 6 6 1.41-1.41z"/></symbol><symbol id="chevron_right"><path d="M0 0h24v24H0V0z" fill="none"/><path d="M8.59 16.59L13.17 12 8.59 7.41 10 6l6 6-6 6-1.41-1.41z"/></symbol><symbol id="chevron_up"><path d="M0 0h24v24H0z" fill="none"/><path d="M7.41 15.41L12 10.83l4.59 4.58L18 14l-6-6-6 6z"/></symbol><symbol id="close"><path d="M0 0h24v24H0z" fill="none"/><path d="M19 6.41L17.59 5 12 10.59 6.41 5 5 6.41 10.59 12 5 17.59 6.41 19 12 13.41 17.59 19 19 17.59 13.41 12z"/></symbol><symbol id="delete" viewBox="0 0 24 24"><path d="M0 0h24v24H0z" fill="none"/><path d="M6 19c0 1.1.9 2 2 2h8c1.1 0 2-.9 2-2V7H6v12zM19 4h-3.5l-1-1h-5l-1 1H5v2h14V4z"/></symbol><symbol id="drag" viewBox="0 0 16 16">
    <path fill-rule="evenodd" clip-rule="evenodd" d="M4 4.75C4 4.33579 4.33579 4 4.75 4H11.25C11.6642 4 12 4.33579 12 4.75C12 5.16421 11.6642 5.5 11.25 5.5H4.75C4.33579 5.5 4 5.16421 4 4.75Z"/>
    <path fill-rule="evenodd" clip-rule="evenodd" d="M4 8.25C4 7.83579 4.33579 7.5 4.75 7.5H11.25C11.6642 7.5 12 7.83579 12 8.25C12 8.66421 11.6642 9 11.25 9H4.75C4.33579 9 4 8.66421 4 8.25Z"/>
    <path fill-rule="evenodd" clip-rule="evenodd" d="M4 11.75C4 11.3358 4.33579 11 4.75 11H11.25C11.6642 11 12 11.3358 12 11.75C12 12.1642 11.6642 12.5 11.25 12.5H4.75C4.33579 12.5 4 12.1642 4 11.75Z"/>
</symbol><symbol id="duplicate" viewBox="0 0 16 16">
<path fill-rule="evenodd" clip-rule="evenodd" d="M2.65932 2.49265C2.8876 2.28492 3.18871 2.17581 3.49706 2.18907C3.5078 2.18953 3.51855 2.18976 3.5293 2.18976H9.5293C9.54004 2.18976 9.55079 2.18953 9.56153 2.18907C9.86989 2.17581 10.171 2.28492 10.3993 2.49265C10.6234 2.6966 10.7595 2.97939 10.7793 3.28132V3.80982H6.37973C4.91065 3.80982 3.71973 5.00074 3.71973 6.46982V10.6898H3.5293C3.51725 10.6898 3.5052 10.6901 3.49316 10.6906C3.34079 10.698 3.18846 10.6752 3.04491 10.6236C2.90135 10.572 2.76938 10.4926 2.65655 10.3899C2.54372 10.2873 2.45226 10.1633 2.38739 10.0253C2.32466 9.89175 2.28799 9.74755 2.2793 9.60038V3.28133C2.29912 2.97939 2.4352 2.6966 2.65932 2.49265ZM3.71973 12.1898H3.54588C3.203 12.2038 2.86059 12.1513 2.53753 12.0352C2.20833 11.9169 1.90571 11.7348 1.64699 11.4993C1.38827 11.2639 1.17852 10.9797 1.02977 10.6631C0.881012 10.3465 0.796167 10.0037 0.780089 9.65423C0.779561 9.64275 0.779297 9.63126 0.779297 9.61976V3.25976C0.779297 3.24697 0.779624 3.23417 0.780279 3.2214C0.816313 2.51798 1.12883 1.85729 1.64976 1.38324C2.16639 0.913111 2.8465 0.664317 3.54409 0.689765H9.5145C10.2121 0.664317 10.8922 0.913111 11.4088 1.38324C11.9298 1.85729 12.2423 2.51798 12.2783 3.2214C12.279 3.23417 12.2793 3.24697 12.2793 3.25976V3.80982H12.5597C14.0288 3.80982 15.2197 5.00074 15.2197 6.46982V12.6498C15.2197 14.1189 14.0288 15.3098 12.5597 15.3098H6.37973C4.91065 15.3098 3.71973 14.1189 3.71973 12.6498V12.1898ZM13.7197 12.6498C13.7197 13.2905 13.2004 13.8098 12.5597 13.8098H6.37973C5.73908 13.8098 5.21973 13.2905 5.21973 12.6498V6.46982C5.21973 5.82916 5.73908 5.30982 6.37973 5.30982H12.5597C13.2004 5.30982 13.7197 5.82917 13.7197 6.46982V12.6498ZM9.46973 6.80981C9.88394 6.80981 10.2197 7.1456 10.2197 7.55981V8.80982H11.4697C11.8839 8.80982 12.2197 9.1456 12.2197 9.55982C12.2197 9.97403 11.8839 10.3098 11.4697 10.3098H10.2197V11.5598C10.2197 11.974 9.88394 12.3098 9.46973 12.3098C9.05551 12.3098 8.71973 11.974 8.71973 11.5598V10.3098H7.46973C7.05551 10.3098 6.71973 9.97403 6.71973 9.55982C6.71973 9.1456 7.05551 8.80982 7.46973 8.80982H8.71973V7.55981C8.71973 7.1456 9.05551 6.80981 9.46973 6.80981Z" fill="#2A2A2F"/>
</symbol><symbol id="edit" viewBox="0 0 16 16">
    <path d="M.685 16a.689.689 0 0 1-.679-.779l.44-3.124a2.28 2.28 0 0 1 .634-1.264L11.057.819a2.978 2.978 0 0 1 4.103 0 2.882 2.882 0 0 1 0 4.068L5.164 14.965a2.213 2.213 0 0 1-1.275.641L.814 16H.685ZM13.113 1.342c-.404 0-.79.161-1.074.449l-9.25 9.275 2.164 2.16 9.234-9.31a1.519 1.519 0 0 0-1.074-2.574Zm-9.176 12.83L1.87 12.09a.916.916 0 0 0-.055.199l-.32 2.226 2.202-.275a.856.856 0 0 0 .241-.07Z"/>
</symbol><symbol id="flows" viewBox="0 0 19 18">
    <path fill-rule="evenodd" clip-rule="evenodd" d="M16.0022 1.5L2.0022 1.5C1.72606 1.5 1.5022 1.72386 1.5022 2L1.5022 2.90909C1.5022 3.18524 1.72606 3.40909 2.0022 3.40909L16.0022 3.40909C16.2784 3.40909 16.5022 3.18523 16.5022 2.90909V2C16.5022 1.72386 16.2784 1.5 16.0022 1.5ZM18.0022 2C18.0022 0.895431 17.1068 0 16.0022 0L2.0022 3.03066e-06C0.897628 3.23988e-06 0.00219709 0.895434 0.00219727 2L0.00219741 2.90909C0.00219759 4.01366 0.897629 4.90909 2.0022 4.90909L16.0022 4.90909C17.1068 4.90909 18.0022 4.01366 18.0022 2.90909V2ZM2.91129 14.5909L2.0022 14.5909C1.72606 14.5909 1.5022 14.8148 1.5022 15.0909L1.5022 16C1.5022 16.2762 1.72606 16.5 2.0022 16.5H2.91129C3.18743 16.5 3.41129 16.2761 3.41129 16L3.41129 15.0909C3.41129 14.8148 3.18743 14.5909 2.91129 14.5909ZM4.91129 15.0909C4.91129 13.9863 4.01586 13.0909 2.91129 13.0909L2.0022 13.0909C0.897629 13.0909 0.00219804 13.9863 0.00219822 15.0909L0.00219837 16C0.00219855 17.1046 0.897629 18 2.0022 18H2.91129C4.01586 18 4.91129 17.1046 4.91129 16V15.0909ZM15.0931 8.04546L16.0022 8.04546C16.2784 8.04546 16.5022 8.26932 16.5022 8.54546V9.45455C16.5022 9.73069 16.2784 9.95455 16.0022 9.95455L15.0931 9.95455C14.817 9.95455 14.5931 9.73069 14.5931 9.45455V8.54546C14.5931 8.26932 14.817 8.04546 15.0931 8.04546ZM16.0022 6.54546C17.1068 6.54546 18.0022 7.44089 18.0022 8.54546V9.45455C18.0022 10.5591 17.1068 11.4546 16.0022 11.4546L15.0931 11.4546C13.9885 11.4546 13.0931 10.5591 13.0931 9.45455V8.54546C13.0931 7.44089 13.9885 6.54546 15.0931 6.54546H16.0022ZM14.2687 16.5H16.0022C16.2784 16.5 16.5022 16.2762 16.5022 16V15.091C16.5022 14.8148 16.2783 14.591 16.0022 14.591L14.9082 14.591C13.3222 14.591 11.8134 13.9063 10.769 12.7127L8.62746 10.2652C7.39319 8.8546 5.61007 8.04547 3.7357 8.04546L2.00223 8.04546C1.72608 8.04546 1.50223 8.26932 1.50223 8.54546L1.50223 9.45455C1.50222 9.73069 1.72608 9.95455 2.00223 9.95455L3.09623 9.95455C4.68224 9.95455 6.19104 10.6392 7.23542 11.8328L9.37697 14.2803C10.6112 15.6909 12.3944 16.5 14.2687 16.5ZM18.0022 15.091C18.0022 13.9864 17.1068 13.091 16.0022 13.091L14.9082 13.091C13.7547 13.091 12.6574 12.593 11.8979 11.725L9.75633 9.27745C8.23723 7.54132 6.04261 6.54547 3.7357 6.54546L2.00223 6.54546C0.897659 6.54546 0.0022257 7.44089 0.00222588 8.54546L0.00222602 9.45455C0.0022243 10.5591 0.897656 11.4546 2.00223 11.4546L3.09623 11.4546C4.24969 11.4546 5.347 11.9525 6.10655 12.8205L8.2481 15.2681C9.7672 17.0042 11.9618 18 14.2687 18H16.0022C17.1068 18 18.0022 17.1046 18.0022 16V15.091Z"/>
</symbol><symbol id="folder" viewBox="0 0 18 17">
    <path fill-rule="evenodd" clip-rule="evenodd" d="M7.19561 1.80673C7.08628 1.76624 6.96925 1.74696 6.85142 1.75039C6.84415 1.7506 6.83688 1.75071 6.82961 1.75071H2.6656L2.64809 1.7505C2.41021 1.74495 2.18318 1.8317 2.016 1.98625C1.85188 2.13797 1.75881 2.34203 1.75 2.55351V10.3978L2.44416 8.66981C2.62464 8.23694 2.93832 7.87465 3.33427 7.62456C3.72871 7.37542 4.18967 7.24682 4.65651 7.2503H15.25V5.48372C15.2412 5.27223 15.1481 5.06818 14.984 4.91646C14.8168 4.76191 14.5898 4.67515 14.3519 4.68071L14.3344 4.68091H9.3449C9.14554 4.68427 8.94702 4.64997 8.76013 4.57951C8.57007 4.50785 8.39515 4.39994 8.2458 4.26104C8.09641 4.1221 7.97549 3.95481 7.89089 3.76816C7.80626 3.58147 7.7599 3.37961 7.755 3.17425L7.75479 3.15637V2.55345C7.75048 2.44944 7.7258 2.34664 7.68152 2.25047C7.6359 2.15138 7.57012 2.06076 7.48697 1.98434C7.40379 1.90788 7.30493 1.84722 7.19561 1.80673ZM16.3671 7.4397C16.386 7.44766 16.4047 7.45588 16.4234 7.46434C16.7503 7.61244 17.0399 7.83304 17.2656 8.11207C17.4915 8.39138 17.6465 8.7209 17.7132 9.0745C17.7799 9.42829 17.7556 9.79173 17.643 10.1336L17.638 10.1483L15.8441 15.2397C15.6766 15.6933 15.3649 16.0773 14.9626 16.3444C14.5612 16.6109 14.0863 16.7504 13.6041 16.7496C13.6038 16.7496 13.6034 16.7496 13.6031 16.7496L13.6046 15.9996L13.6041 16.7496H2.60658C2.60945 16.7496 2.61231 16.7495 2.61518 16.7495L2.59939 15.9996V16.7496H2.60658C2.24286 16.756 1.88103 16.6805 1.55121 16.5273C1.21865 16.3729 0.925937 16.1428 0.701689 15.8525C0.47719 15.5619 0.328707 15.2203 0.273737 14.8566C0.230364 14.5696 0.246732 14.2786 0.320329 14H0.25V2.54046C0.25 2.53299 0.250112 2.52552 0.250335 2.51806C0.268969 1.89459 0.540073 1.30791 0.997766 0.884799C1.45247 0.464451 2.05477 0.238699 2.67355 0.250706H6.81971C7.12533 0.243321 7.42989 0.293926 7.71659 0.400112C8.00704 0.507688 8.27409 0.670444 8.50206 0.879978C8.73006 1.08955 8.91455 1.34189 9.04405 1.62315C9.17356 1.90445 9.24525 2.20864 9.25446 2.51818C9.25468 2.52561 9.25479 2.53303 9.25479 2.54046V3.14113C9.25511 3.14347 9.25581 3.14607 9.25709 3.1489C9.25889 3.15288 9.26206 3.15774 9.26735 3.16266C9.27268 3.16762 9.28 3.17244 9.28932 3.17596C9.29867 3.17948 9.30922 3.18137 9.32019 3.18112L9.33759 3.18091H14.3265C14.9452 3.16891 15.5475 3.39466 16.0022 3.81501C16.4599 4.23812 16.731 4.82479 16.7497 5.44827C16.7499 5.45573 16.75 5.4632 16.75 5.47067V7.4397H16.3671ZM15.8044 8.83064C15.6834 8.77583 15.5477 8.74756 15.4089 8.75016L15.3948 8.75043L4.64676 8.7503C4.46036 8.74864 4.28182 8.80022 4.1353 8.89277C3.99059 8.98417 3.88737 9.1086 3.83025 9.24341L1.79027 14.3215C1.75218 14.4227 1.74125 14.5289 1.7569 14.6324C1.77279 14.7376 1.81644 14.8419 1.88874 14.9355C1.96129 15.0294 2.06113 15.1103 2.183 15.1669C2.30501 15.2235 2.44273 15.2528 2.5836 15.2498L2.59939 15.2496H13.6046L13.6061 15.2496C13.7995 15.25 13.9838 15.1937 14.1329 15.0947C14.28 14.9971 14.3821 14.8655 14.4352 14.7245L16.2202 9.65851C16.2521 9.55833 16.2583 9.45405 16.2392 9.35258C16.2196 9.24888 16.1732 9.14672 16.0994 9.0554C16.0253 8.9638 15.9252 8.88539 15.8044 8.83064Z"/>
</symbol><symbol id="funnels" viewBox="0 0 19 18">
    <path fill-rule="evenodd" clip-rule="evenodd" d="M2.0022 16.5H2.91129C3.18743 16.5 3.41129 16.2761 3.41129 16L3.41129 2C3.41129 1.72386 3.18743 1.5 2.91129 1.5H2.0022C1.72606 1.5 1.5022 1.72386 1.5022 2L1.5022 16C1.5022 16.2761 1.72606 16.5 2.0022 16.5ZM2.91129 18C4.01586 18 4.91129 17.1046 4.91129 16L4.91129 2C4.91129 0.895432 4.01586 0 2.91129 0H2.0022C0.89763 0 0.0021995 0.895433 0.00219942 2L0.00219727 16C0.00219727 17.1046 0.89763 18 2.0022 18H2.91129ZM8.54765 16.5H9.45674C9.73288 16.5 9.95674 16.2761 9.95674 16L9.95674 8.54546C9.95674 8.26931 9.73289 8.04546 9.45674 8.04546H8.54765C8.27151 8.04546 8.04765 8.26931 8.04765 8.54546V16C8.04765 16.2761 8.27151 16.5 8.54765 16.5ZM9.45674 18C10.5613 18 11.4567 17.1046 11.4567 16L11.4567 8.54546C11.4567 7.44089 10.5613 6.54546 9.45674 6.54546L8.54765 6.54546C7.44308 6.54546 6.54765 7.44089 6.54765 8.54546L6.54765 16C6.54765 17.1046 7.44308 18 8.54765 18H9.45674ZM16.0022 16.5H15.0931C14.817 16.5 14.5931 16.2761 14.5931 16V13.4545C14.5931 13.1784 14.817 12.9545 15.0931 12.9545H16.0022C16.2783 12.9545 16.5022 13.1784 16.5022 13.4545V16C16.5022 16.2761 16.2783 16.5 16.0022 16.5ZM18.0022 16C18.0022 17.1046 17.1068 18 16.0022 18H15.0931C13.9885 18 13.0931 17.1046 13.0931 16V13.4545C13.0931 12.35 13.9885 11.4545 15.0931 11.4545H16.0022C17.1068 11.4545 18.0022 12.35 18.0022 13.4545V16Z"/>
</symbol><symbol id="h1" viewBox="0 0 15 12"><path d="M1 11V1m8.171 10V1M2.361 6H7.81" stroke="#2A2A2F" stroke-width="1.5" stroke-miterlimit="10" stroke-linecap="round" stroke-linejoin="round"/><path d="M13.562 10.75h1.165v-7h-.468L12.167 4.9v1.16l1.395-.78v5.47Z" fill="#2A2A2F"/><path fill-rule="evenodd" clip-rule="evenodd" d="M13.29 11V5.725l-1.395.78V4.758L14.183 3.5H15V11h-1.71Zm.272-5.72v5.47h1.165v-7h-.468L12.167 4.9v1.16l1.395-.78Z"/></symbol><symbol id="h2" viewBox="0 0 15 12"><path d="M1 10.92V1m7.066 9.92V1M2.178 5.96h4.71" stroke="#2A2A2F" stroke-width="1.5" stroke-miterlimit="10" stroke-linecap="round" stroke-linejoin="round"/><path d="M10.657 10.752h4.108V9.78h-2.516l1.724-2.371c.425-.576.641-1.131.641-1.717 0-1.18-.735-1.964-1.912-1.964-1.074 0-1.856.784-1.932 1.845l.933.189c.085-.655.443-1.062.98-1.062.593 0 .923.387.923 1.022 0 .447-.122.784-.584 1.389l-2.365 3.224v.417Z" fill="#2A2A2F"/><path fill-rule="evenodd" clip-rule="evenodd" d="M10.42 11v-.75l2.418-3.294c.225-.296.356-.511.432-.697.074-.18.1-.342.1-.537 0-.274-.071-.462-.176-.58-.102-.115-.265-.194-.512-.194a.634.634 0 0 0-.49.21c-.124.136-.219.348-.256.637l-.034.26-1.383-.28.016-.22c.084-1.193.97-2.075 2.166-2.075.639 0 1.18.214 1.563.611s.585.956.585 1.601c0 .656-.245 1.264-.69 1.868l-1.433 1.972H15V11h-4.58Zm1.829-1.22 1.724-2.371c.424-.576.64-1.131.64-1.717 0-1.18-.734-1.964-1.912-1.964-1.074 0-1.856.784-1.931 1.845l.932.189c.01-.072.022-.14.038-.206.127-.533.464-.856.942-.856.593 0 .923.387.923 1.022 0 .447-.122.784-.584 1.39l-2.365 3.223v.417h4.108V9.78H12.25Z"/></symbol><symbol id="h3" viewBox="0 0 15 12"><path d="M1 10.68V1m6.867 9.68V1M2.145 5.84h4.578" stroke="#2A2A2F" stroke-width="1.5" stroke-miterlimit="10" stroke-linecap="round" stroke-linejoin="round"/><path d="M12.647 10.758c1.245 0 2.124-.871 2.124-2.236 0-1.25-.686-2.053-1.657-2.053-.091 0-.174.01-.247.02l1.575-2.236v-.349h-3.58v.949h2.17l-1.337 1.926.403.59c.183-.106.357-.154.558-.154.678 0 1.136.455 1.136 1.316 0 .785-.44 1.278-1.145 1.278-.659 0-1.016-.455-1.144-1.132l-.943.135c.11 1.162.943 1.946 2.087 1.946Z" fill="#2A2A2F"/><path fill-rule="evenodd" clip-rule="evenodd" d="m14.442 4.253-1.575 2.236a1.846 1.846 0 0 1 .298-.019c.944.028 1.606.825 1.606 2.052 0 1.365-.879 2.236-2.124 2.236-1.064 0-1.859-.678-2.054-1.706a3.064 3.064 0 0 1-.034-.24l.943-.135c.129.677.486 1.132 1.145 1.132.705 0 1.144-.493 1.144-1.277 0-.862-.457-1.317-1.135-1.317-.201 0-.375.048-.558.155l-.403-.59 1.336-1.927h-2.17v-.949h3.58v.349Zm-1.862.842-1.168 1.683.618.907.178-.103a.843.843 0 0 1 .448-.125c.29 0 .508.096.656.26.149.165.25.428.25.815 0 .344-.095.6-.245.766-.148.166-.37.27-.67.27-.275 0-.469-.093-.61-.242-.145-.154-.252-.387-.31-.697l-.042-.223-1.375.198.022.232C10.454 10.126 11.39 11 12.647 11c.674 0 1.265-.236 1.69-.675.424-.44.663-1.064.663-1.803 0-.67-.184-1.244-.52-1.653a1.716 1.716 0 0 0-1.152-.63l1.343-1.906v-.67h-4.038v1.432h1.947Z"/></symbol><symbol id="insights" viewBox="0 0 19 18">
    <path fill-rule="evenodd" clip-rule="evenodd" d="M16.0022 1.5H2.0022C1.72605 1.5 1.5022 1.72386 1.5022 2V16C1.5022 16.2761 1.72605 16.5 2.0022 16.5H16.0022C16.2783 16.5 16.5022 16.2761 16.5022 16V2C16.5022 1.72386 16.2783 1.5 16.0022 1.5ZM2.0022 0C0.897628 0 0.00219727 0.89543 0.00219727 2V16C0.00219727 17.1046 0.897628 18 2.0022 18H16.0022C17.1068 18 18.0022 17.1046 18.0022 16V2C18.0022 0.895431 17.1068 0 16.0022 0H2.0022ZM9.0022 11.5227C9.41641 11.5227 9.7522 11.8585 9.7522 12.2727V14.7273C9.7522 15.1415 9.41641 15.4773 9.0022 15.4773C8.58798 15.4773 8.2522 15.1415 8.2522 14.7273V12.2727C8.2522 11.8585 8.58798 11.5227 9.0022 11.5227ZM5.66129 13.9091C5.66129 13.4949 5.3255 13.1591 4.91129 13.1591C4.49707 13.1591 4.16129 13.4949 4.16129 13.9091V14.7273C4.16129 15.1415 4.49708 15.4773 4.91129 15.4773C5.3255 15.4773 5.66129 15.1415 5.66129 14.7273V13.9091ZM13.0931 13.1591C13.5073 13.1591 13.8431 13.4949 13.8431 13.9091V14.7273C13.8431 15.1415 13.5073 15.4773 13.0931 15.4773C12.6789 15.4773 12.3431 15.1415 12.3431 14.7273V13.9091C12.3431 13.4949 12.6789 13.1591 13.0931 13.1591ZM3.15369 8.87876C2.86079 9.17165 2.86079 9.64653 3.15369 9.93942C3.44658 10.2323 3.92145 10.2323 4.21435 9.93942L6.54765 7.60611L8.47187 9.53033C8.76476 9.82322 9.23963 9.82322 9.53253 9.53033L14.8507 4.21215C15.1436 3.91926 15.1436 3.44438 14.8507 3.15149C14.5578 2.8586 14.0829 2.8586 13.79 3.15149L9.0022 7.93934L7.07798 6.01512C6.78509 5.72223 6.31022 5.72223 6.01732 6.01512L3.15369 8.87876Z"/>
</symbol><symbol id="italic" viewBox="0 0 24 24"><path d="M0 0h24v24H0z" fill="none"/><path d="M10 4v3h2.21l-3.42 8H6v3h8v-3h-2.21l3.42-8H18V4z"/></symbol><symbol id="link" viewBox="0 0 14 14">
<path fill-rule="evenodd" clip-rule="evenodd" d="M6.40763 7.39086C6.06571 7.15929 5.60375 7.25316 5.3758 7.60051C5.14786 7.94786 5.24025 8.41717 5.58217 8.64874C7.27027 9.79204 9.19935 9.91746 10.5276 8.56705L10.5277 8.56697L12.9722 6.08353C14.3421 4.69184 14.3421 2.43546 12.9722 1.04377C11.6023 -0.347922 9.38126 -0.347924 8.01135 1.04377L6.97585 2.09574C6.68527 2.39093 6.68527 2.86954 6.97585 3.16473C7.26642 3.45993 7.73754 3.45993 8.02811 3.16473L9.06362 2.11276C9.85238 1.31146 11.1312 1.31146 11.92 2.11276C12.7087 2.91406 12.7087 4.21323 11.92 5.01453L9.47532 7.49806L9.47506 7.49832C8.82032 8.16413 7.73448 8.28949 6.40763 7.39086ZM7.59203 6.60627C7.93395 6.83784 8.39591 6.74397 8.62386 6.39662C8.8518 6.04926 8.75941 5.57995 8.41749 5.34839C6.72939 4.20509 4.80031 4.07967 3.47208 5.43008L3.472 5.43016L1.02743 7.9136C-0.342477 9.30529 -0.342477 11.5617 1.02743 12.9534C2.39734 14.3451 4.6184 14.3451 5.98831 12.9534L7.02381 11.9014C7.31439 11.6062 7.31439 11.1276 7.02381 10.8324C6.73324 10.5372 6.26212 10.5372 5.97155 10.8324L4.93604 11.8844C4.14728 12.6857 2.86845 12.6857 2.07969 11.8844C1.29093 11.0831 1.29093 9.7839 2.07969 8.9826L4.52434 6.49907L4.5246 6.49881C5.17934 5.833 6.26518 5.70764 7.59203 6.60627Z" fill="#2A2A2F"/>
</symbol><symbol id="menu">
  <path d="M0 0h24v24H0z" fill="none"/>
  <path d="M3 18h18v-2H3v2zm0-5h18v-2H3v2zm0-7v2h18V6H3z"/>
</symbol><symbol id="more" viewBox="0 0 24 24">
    <path d="M0 0h24v24H0z" fill="none"/>
    <path d="M12 8c1.1 0 2-.9 2-2s-.9-2-2-2-2 .9-2 2 .9 2 2 2zm0 2c-1.1 0-2 .9-2 2s.9 2 2 2 2-.9 2-2-.9-2-2-2zm0 6c-1.1 0-2 .9-2 2s.9 2 2 2 2-.9 2-2-.9-2-2-2z"/>
</symbol><symbol id="retention" viewBox="0 0 19 18">
    <path fill-rule="evenodd" clip-rule="evenodd" d="M2.91129 3.40909H2.0022C1.72605 3.40909 1.5022 3.18523 1.5022 2.90909L1.5022 2C1.5022 1.72386 1.72606 1.5 2.0022 1.5H2.91129C3.18743 1.5 3.41129 1.72386 3.41129 2V2.90909C3.41129 3.18523 3.18743 3.40909 2.91129 3.40909ZM4.91129 2.90909C4.91129 4.01366 4.01586 4.90909 2.91129 4.90909L2.0022 4.90909C0.897629 4.90909 0.00219727 4.01366 0.00219727 2.90909V2C0.00219727 0.895431 0.897628 0 2.0022 0H2.91129C4.01586 0 4.91129 0.895431 4.91129 2V2.90909ZM2.91129 9.95455H2.0022C1.72605 9.95455 1.5022 9.73069 1.5022 9.45455L1.5022 8.54545C1.5022 8.26931 1.72606 8.04545 2.0022 8.04545H2.91129C3.18743 8.04545 3.41129 8.26931 3.41129 8.54545V9.45454C3.41129 9.73069 3.18743 9.95455 2.91129 9.95455ZM4.91129 9.45454C4.91129 10.5591 4.01586 11.4545 2.91129 11.4545H2.0022C0.897629 11.4545 0.00219727 10.5591 0.00219727 9.45455V8.54545C0.00219727 7.44089 0.897628 6.54545 2.0022 6.54545L2.91129 6.54545C4.01586 6.54545 4.91129 7.44089 4.91129 8.54545V9.45454ZM9.45674 9.95455H8.54765C8.27151 9.95455 8.04765 9.73069 8.04765 9.45455V8.54545C8.04765 8.26931 8.27151 8.04545 8.54765 8.04545H9.45674C9.73289 8.04545 9.95674 8.26931 9.95674 8.54545V9.45454C9.95674 9.73069 9.73288 9.95455 9.45674 9.95455ZM11.4567 9.45454C11.4567 10.5591 10.5613 11.4545 9.45674 11.4545H8.54765C7.44308 11.4545 6.54765 10.5591 6.54765 9.45455V8.54545C6.54765 7.44089 7.44308 6.54545 8.54765 6.54545L9.45674 6.54545C10.5613 6.54545 11.4567 7.44089 11.4567 8.54545V9.45454ZM2.0022 16.5H2.91129C3.18743 16.5 3.41129 16.2761 3.41129 16V15.0909C3.41129 14.8148 3.18743 14.5909 2.91129 14.5909H2.0022C1.72606 14.5909 1.5022 14.8148 1.5022 15.0909L1.5022 16C1.5022 16.2761 1.72605 16.5 2.0022 16.5ZM2.91129 18C4.01586 18 4.91129 17.1046 4.91129 16V15.0909C4.91129 13.9863 4.01586 13.0909 2.91129 13.0909H2.0022C0.897628 13.0909 0.00219727 13.9863 0.00219727 15.0909V16C0.00219727 17.1046 0.897629 18 2.0022 18H2.91129ZM8.54765 3.40909H9.45674C9.73288 3.40909 9.95674 3.18523 9.95674 2.90909V2C9.95674 1.72386 9.73289 1.5 9.45674 1.5H8.54765C8.27151 1.5 8.04765 1.72386 8.04765 2V2.90909C8.04765 3.18523 8.27151 3.40909 8.54765 3.40909ZM9.45674 4.90909C10.5613 4.90909 11.4567 4.01366 11.4567 2.90909V2C11.4567 0.895431 10.5613 0 9.45674 0H8.54765C7.44308 0 6.54765 0.895431 6.54765 2V2.90909C6.54765 4.01366 7.44308 4.90909 8.54765 4.90909L9.45674 4.90909ZM16.0022 3.40909H15.0931C14.817 3.40909 14.5931 3.18523 14.5931 2.90909V2C14.5931 1.72386 14.817 1.5 15.0931 1.5H16.0022C16.2783 1.5 16.5022 1.72386 16.5022 2V2.90909C16.5022 3.18523 16.2783 3.40909 16.0022 3.40909ZM18.0022 2.90909C18.0022 4.01366 17.1068 4.90909 16.0022 4.90909L15.0931 4.90909C13.9885 4.90909 13.0931 4.01366 13.0931 2.90909V2C13.0931 0.895431 13.9885 0 15.0931 0H16.0022C17.1068 0 18.0022 0.895431 18.0022 2V2.90909Z"/>
</symbol><symbol id="vertical_align_bottom" viewBox="0 0 24 24"><path d="M0 0h24v24H0z" fill="none"/><path d="M16 13h-3V3h-2v10H8l4 4 4-4zM4 19v2h16v-2H4z"/></symbol><symbol id="vertical_align_center" viewBox="0 0 24 24"><path d="M0 0h24v24H0z" fill="none"/><path d="M8 19h3v4h2v-4h3l-4-4-4 4zm8-14h-3V1h-2v4H8l4 4 4-4zM4 11v2h16v-2H4z"/></symbol><symbol id="vertical_align_top" viewBox="0 0 24 24"><path d="M0 0h24v24H0z" fill="none"/><path d="M8 11h3v10h2V11h3l-4-4-4 4zM4 3v2h16V3H4z"/></symbol></svg>
